<?xml version="1.0" encoding="utf-8"?>
<!-- Generator: Adobe Illustrator 19.0.0, SVG Export Plug-In . SVG Version: 6.00 Build 0)  -->
<!DOCTYPE svg PUBLIC "-//W3C//DTD SVG 1.1//EN" "http://www.w3.org/Graphics/SVG/1.1/DTD/svg11.dtd">
<svg version="1.1" id="Layer_1" xmlns="http://www.w3.org/2000/svg" xmlns:xlink="http://www.w3.org/1999/xlink" x="0px" y="0px"
	 viewBox="0 0 180 105" style="enable-background:new 0 0 180 105;" xml:space="preserve">
<style type="text/css">
	.st0{display:none;fill-rule:evenodd;clip-rule:evenodd;fill:#000222;}
	.st1{display:none;fill-rule:evenodd;clip-rule:evenodd;fill:#FFFFFF;stroke:#000222;stroke-width:2;stroke-miterlimit:10;}
	.st2{display:none;fill-rule:evenodd;clip-rule:evenodd;fill:#CCCCCC;}
	.st3{fill:#000222;}
	.st4{fill:none;}
</style>
<path id="XMLID_3_" class="st0" d="M0.1,71.9c0,0,10.9-1,27-1c22,0,54.5,0.1,83,1c12.8,0.4,24.7,0,35,0c20.1,0,27.8-1.3,34,0
	c-0.7,2.1,0.7,5,0,11.7c-1.1,11.7,2.1,22,0,28.3c-4.8-0.2-20-1.2-33,0c-10.1,0.9-20.1-0.8-33.1,0c-26.9,1.6-56.6,0.1-78.9,1
	c-6.8,0.3-13.2-1.3-18.3-1c-9.9,0.5-15.7,0-15.7,0s0-5.3,0-12.1c0-4.3,0-9.3,0-13.8C0.1,78.3,0.1,71.9,0.1,71.9z"/>
<path id="XMLID_1_" class="st1" d="M0,28.5c0,0,10.9-0.7,27-0.7c22,0,54.6,0.1,83.1,0.7c12.8,0.3,24.7,0,35.1,0
	c20.2,0,27.9-0.9,34.1,0c-0.7,1.5,0.7,3.5,0,8.4c-1.2,8.4,2.1,15.7,0,20.2c-4.8-0.1-20.1-0.8-33.1,0c-10.1,0.6-20.1-0.6-33.2,0
	c-26.9,1.2-56.7,0-79,0.7c-6.8,0.2-13.2-0.9-18.3-0.7c-9.9,0.4-15.8,0-15.8,0s0-3.8,0-8.7c0-3.1,0-6.6,0-9.8C0,33.1,0,28.5,0,28.5z"
	/>
<path id="XMLID_5_" class="st2" d="M0.1-36.2c0,0,10.9-1,27-1c22,0,54.5,0.1,83,1c12.8,0.4,24.7,0,35,0c20.1,0,27.8-1.3,34,0
	c-0.7,2.1,0.7,5,0,11.7c-1.1,11.7,2.1,22,0,28.3c-4.8-0.2-20-1.2-33,0c-10.1,0.9-20.1-0.8-33.1,0c-26.9,1.6-56.6,0.1-78.9,1
	c-6.8,0.3-13.2-1.3-18.3-1C6,4.3,0.1,3.8,0.1,3.8s0-5.3,0-12.1c0-4.3,0-9.3,0-13.8C0.1-29.8,0.1-36.2,0.1-36.2z"/>
<g id="XMLID_2_">
	<g id="XMLID_296_">
		<path id="XMLID_297_" class="st3" d="M111.2,57.6c0.5-1.4,1.2-2.8,1.4-4.3c0.1-0.5,0-1-0.4-1.2c-0.2-0.1-0.5-0.3-0.8-0.3
			c-0.5-0.1-0.9-0.2-1.2-0.5c-0.5-0.3-1.1-0.5-1.7-0.4c-0.7,0.1-1.5,0.2-2,0.8c-0.5,0.5-1.1,0.8-1.3,1.6c-0.1,0.3-0.3,0.6-0.4,0.9
			c-0.3,0.8-0.7,1.5-1.1,2.3c-0.4,1-0.7,2-1.2,3c-0.3,0.7-0.6,1.4-0.9,2.1c-0.4,1-0.7,2.1-1.2,3.2c-0.2,0.6-0.5,1.3-0.7,1.9
			c-0.2,0.7-0.3,1.4-0.5,2.2c-0.1,0.9-0.3,1.8-0.5,2.6c-0.3,1.8-0.8,3.6-1.2,5.4c-0.1,0.1-0.1,0.1-0.3,0.3c-0.1-0.6-0.1-1-0.1-1.4
			c0-1-0.1-1.9-0.3-2.9c-0.2-0.8-0.3-1.6-1-2.3c-0.3-0.5-0.7-1-1.3-1c-0.2-0.1-0.3-0.2-0.5-0.2c-0.7-0.1-1.4-0.2-2.1-0.3
			c-0.1,0-0.3,0.1-0.4,0.1c-0.7,0.2-1.3,0.6-1.9,1c-0.2,0.1-0.4,0.3-0.5,0.4c-0.8,0.8-1.4,1.8-1.9,2.8c-0.5,1-1,1.9-1.8,2.5
			c-0.3,0.3-0.5,0.7-1,0.8c0.1-0.7,0.1-1.3,0.2-1.9c0.1-0.8,0.3-1.6,0.3-2.5c0.1-0.6,0.1-1.3,0.1-2c0-0.1,0.1-0.2,0.1-0.3
			c0.1-0.4,0.2-0.9,0.2-1.4c0-0.2-0.1-0.5-0.2-0.7c-0.3-0.6-0.8-0.9-1.4-1c-0.6-0.1-1.1-0.4-1.4-1c-0.3-0.5-0.7-0.5-1.1-0.6
			c-0.1,0-0.3,0-0.5,0c-0.5-0.1-0.8,0.1-1,0.5c-0.2,0.5-0.4,1-0.5,1.6c-0.1,0.4-0.1,0.9-0.3,1.4c-0.3,1.2-0.5,2.3-0.9,3.4
			c-0.1,0.1-0.1,0.2-0.1,0.3c-0.1,1-0.3,2.1-0.5,3.1c-0.2,1.1-0.4,2.2-1,3.2c-0.1,0.1-0.1,0.3-0.1,0.5c-0.1,0-0.3-0.3-0.4,0
			c0,0.1-0.1,0.1-0.3,0.1c-0.7,0.3-1.6,0.2-2.4,0.3c-0.3,0.1-0.6,0.1-1,0.1c-0.6,0-1.2-0.1-1.8-0.1c-0.3,0-0.5-0.1-0.7-0.1
			c-1.1,0-2.2-0.1-3.3-0.1c-1.6,0-3.3,0-5,0.1c-0.7,0-1.4,0.3-1.7,1.1c-0.2,0.3-0.3,0.6-0.3,1c0,0.4-0.2,0.5-0.5,0.7
			c-0.4,0.1-0.7,0.3-1.2,0.5c-0.2,0.1-0.4,0.3-0.7,0.4c-0.6,0.3-1.1,0.7-1.6,1.1c-0.7,0.6-1.3,1.3-1.9,2c-0.4,0.5-0.8,1.1-1,1.9
			c0,0.3-0.2,0.6-0.3,0.9c-0.1,0.3-0.2,0.6-0.3,0.9c-0.2,0.8-0.3,1.7-0.5,2.5c-0.1,0.9-0.3,1.7-0.5,2.5c-0.1,0.8,0.1,1.4,0.3,2.1
			c0.2,0.8,0.6,1.4,1.2,1.8c0.5,0.3,0.9,0.8,1.6,0.9c1.3,0.1,2.5,0.3,3.8,0.1c0.6-0.1,1.3-0.2,1.9-0.5c1-0.7,2.1-1.2,3-2.1
			c0.3-0.3,0.7-0.6,1-1c0.4-0.4,0.8-0.8,1.2-1.3c0.4-0.5,0.7-1,1-1.4c0.4-0.6,1-1.2,0.9-2.1c0-0.1,0.1-0.2,0.1-0.3
			c0.3-1,0.3-2,0.4-3c0.1-0.7,0.1-1.4,0.1-2.1c0.5-0.1,1.1-0.1,1.6-0.1c0.2,0,0.5,0.1,0.7,0.1c1.2-0.1,2.3-0.1,3.4-0.3
			c0.6-0.1,1.2,0.2,1.8-0.1c0.2-0.1,0.4,0.1,0.3,0.4c-0.1,0.8-0.3,1.5-0.4,2.3c-0.2,1.2-0.4,2.4-0.7,3.6c-0.2,0.8-0.2,1.6-0.2,2.4
			c0,0.5,0,1,0.2,1.4c0.4,0.9,0.9,1.9,2,2.2c0.5,0.1,1,0.5,1.6,0.5c0.7,0,1.4,0.1,2,0.2c0.1,0,0.2,0,0.3,0c0.3,0,0.4-0.1,0.5-0.3
			c0.4-0.9,0.9-1.7,1.4-2.6c0.3-0.5,0.6-1.2,0.9-1.8c0.2-0.4,0.3-0.8,0.5-1.2c0.3-0.5,0.6-1,0.9-1.6c0.5-0.9,0.7-1.9,1.2-2.7
			c0.3-0.8,0.8-1.4,1.2-2.3c0.1-0.3,0.3-0.5,0.5-0.8c0.4-0.5,0.7-1.1,1-1.7c0-0.1,0.1-0.1,0.2-0.3c0,0.3,0.1,0.3,0.2,0.4
			c0,0.3,0,0.6,0,1c0,0.4,0.1,0.8,0.1,1.2c0.1,0.8,0.1,1.5,0.2,2.3c0.1,0.6,0.1,1.2,0.3,1.7c0.1,0.8,0.1,1.8,0.5,2.6
			c0.2,0.5,0.4,1,0.7,1.4c0.1,0.3,0.4,0.5,0.7,0.8c0.5,0.5,0.9,1,1.4,1.4c0.7,0.5,1.4,1,2,1.4c0.2,0.1,0.4,0.3,0.6,0.3
			c0.7,0.1,1.5-0.2,2.1-0.6c0.6-0.5,1.2-1.2,1.8-1.8c0.2-0.3,0.5-0.5,0.6-0.8c0.3-0.8,0.8-1.4,1.1-2.2c0.2-0.7,0.5-1.3,0.7-2
			c0.3-1,0.5-1.9,0.9-2.9c0.1-0.2,0.3-0.4,0.3-0.7c0.1-0.4,0.3-0.8,0.4-1.2c0.4-1,0.8-1.9,1.2-2.9c0.2-0.5,0.4-1.1,0.5-1.6
			c0.2-0.8,0.3-1.5,0.5-2.3c0.1-0.8,0.3-1.5,0.5-2.3c0.1-0.2,0.1-0.5,0.1-0.8c0.3-1.2,0.6-2.3,0.9-3.5c0.1-0.4,0.3-0.9,0.3-1.3
			c0-0.8,0.3-1.4,0.5-2.1c0.1-0.1,0.1-0.3,0.2-0.5c0.1-0.8,0.2-1.6,0.4-2.4c0.4-1.5,1-3.1,1.4-4.6C110.1,60.4,110.6,59,111.2,57.6z
			 M60,90.2c-0.3,0.7-0.4,1.5-1,2.1c-0.7,0.8-1.4,1.6-2,2.5c-0.1,0.1-0.3,0.2-0.5,0.4c-0.1-0.3-0.2-0.5-0.1-0.8
			c0-0.8,0.2-1.4,0.6-2.1c0.1-0.2,0.3-0.3,0.5-0.5c0.1-0.1,0.2-0.1,0.3-0.2c0.4-0.5,1-1,1.4-1.4c0.3-0.2,0.4-0.6,0.9-0.6
			C60,89.8,60,90.1,60,90.2z M155.1,94.4c-0.1-0.1-0.3-0.2-0.4-0.2c-0.7,0-1.2-0.3-1.8-0.5c-0.5-0.3-1.2-0.3-1.8-0.5
			c-0.7-0.3-1.4-0.6-2-1.1c-1.1-0.9-2-2-2.9-3.1c-0.1-0.2-0.3-0.4-0.5-0.7c-0.1-0.3-0.2-0.6-0.3-0.9c-0.6-1.1-1.3-2.3-2-3.4
			c-0.1-0.2-0.3-0.5-0.5-0.8c-0.3-0.6-0.6-1.2-0.5-2.1c0.1,0,0.1-0.1,0.1,0c0.7-0.2,1.4-0.5,2.1-0.7c0.1-0.1,0.3,0,0.3-0.1
			c0.1-0.4,0.5-0.5,0.8-0.7c1.3-0.8,2.2-2,3.1-3.2c0.1-0.2,0.3-0.5,0.4-0.7c0.5-1,1.2-2,1.6-3c0.4-0.8,0.6-1.7,1-2.6
			c0.3-0.8,0.6-1.4,0.8-2.2c0.3-0.8,0.5-1.5,0.6-2.3c0.1-0.6,0.1-1.2,0.1-1.8c0-0.4-0.1-0.8-0.1-1.2c-0.1-0.9-0.2-1.8-0.4-2.7
			c-0.4-1.8-1.4-3.2-2.9-4.3c-1-0.7-2-1.2-3.2-1.5c-0.4-0.1-0.7-0.1-1.1,0.1c-0.3,0.1-0.5,0.2-0.8,0.3c-1,0.1-1.8,0.6-2.7,1
			c-0.3,0.1-0.5,0.4-0.9,0.5c-1.2,0.5-2.2,1.2-3.1,2.1c-0.1,0.2-0.4,0.3-0.5,0.5c-0.5,0.6-1.1,1.2-1.5,1.9c-0.5,1-1.2,1.9-1.4,3
			c-0.1,0.6-0.3,1.2-0.5,1.8c-0.3,1-0.5,1.9-0.7,2.9c-0.1,0.4-0.2,0.8-0.3,1.1c-0.1,0.3-0.1,0.6-0.2,0.9c-0.1,0.3-0.1,0.5-0.2,0.8
			c0,0.1,0,0.3-0.1,0.4c-0.3,0.9-0.7,1.8-1,2.7c-0.2,0.6-0.2,1.3-0.4,1.9c-0.2,0.6-0.3,1.3-0.5,2c-0.3,1.2-0.7,2.3-1.1,3.5
			c-0.1,0.1-0.1,0.3-0.2,0.4c0,0.1-0.1,0.1-0.1,0.3c0,0.2,0,0.4-0.1,0.5c-0.1,0.4-0.3,0.8-0.5,1.2c-0.3,1.1-0.6,2.1-1.1,3.1
			c-0.6,1.3-1,2.7-1.6,4.1c-0.3,0.6-0.6,1.4-0.9,2.1c-0.1,0.3-0.1,0.5-0.2,0.8c-0.2,0.5-0.5,1-0.7,1.4c-0.1,0.3-0.2,0.5-0.3,0.8
			c-0.1,0.4-0.1,0.9-0.1,1.4c0,0.5-0.1,1-0.1,1.3c0.3,0.2,0.5,0.4,0.7,0.6c0.5,0.5,1.1,0.5,1.7,0.5c0.7,0,1.3-0.2,1.8-0.7
			c0.1-0.1,0.1-0.1,0.2-0.1c0.7-0.3,1.2-0.9,1.6-1.4c0.4-0.4,0.7-1,1-1.4c0.3-0.3,0.5-0.5,0.7-0.9c0.4-0.7,0.7-1.4,1.2-2.1
			c0.2-0.5,0.5-0.9,0.7-1.4c0.3-1,0.6-1.9,0.9-2.9c0.3-1,0.5-1.9,0.8-2.8c0.1-0.3,0.1-0.6,0.3-1.1c0.1,0.2,0.1,0.3,0.2,0.5
			c0.1,0.2,0.2,0.3,0.3,0.5c0.2,0.5,0.5,1,0.7,1.5c0.1,0.2,0.2,0.5,0.3,0.8c0.2,0.4,0.5,0.8,0.7,1.3c0.3,0.8,0.9,1.4,1.4,2.1
			c0.9,1,1.8,1.9,2.9,2.6c0.1,0,0.1,0.1,0.2,0.1c0.3,0.3,0.5,0.8,1,0.8c0.1,0.1,0.2,0.1,0.3,0.2c0.7,0.4,1.4,0.9,2,1.4
			c0.1,0.1,0.1,0.1,0.1,0.1c0.7,0.2,1.6,0.4,2.3,0.5c1,0.1,2,0.3,3.1,0.3c0.7-0.1,1.4-0.1,2-0.6c0.3-0.3,0.7-0.7,1.1-0.9
			c0.5-0.2,0.7-0.5,1-1C155.7,95.1,155.6,94.6,155.1,94.4z M139.9,73.7c-0.5,0.3-1.2,0.5-1.9,0.8c0.1-0.3,0.1-0.7,0.2-1
			c0.1-0.4,0.3-0.8,0.5-1.2c0.1-0.2,0.1-0.4,0.1-0.6c0.3-1,0.6-1.9,0.9-2.7c0.3-1.2,0.6-2.3,0.9-3.4c0.1-0.3,0.3-0.5,0.3-0.8
			c0.5-1.3,1.1-2.5,1.8-3.7c0.5-0.8,1.2-1.6,2.2-2c0.1,0,0.1,0,0.1-0.1c1,0.5,1.1,1.4,1,2.3c0,0.4-0.1,0.8-0.1,1.2
			c-0.3,1.4-0.5,2.7-0.8,4.1c-0.1,0.5-0.2,1-0.3,1.4c-0.2,0.7-0.4,1.4-0.9,1.9c-0.3,0.3-0.5,0.8-0.7,1.1c-0.1,0.3-0.4,0.5-0.6,0.8
			C141.8,72.6,140.9,73.1,139.9,73.7z M37,65.7c0.8-0.1,1.6,0,2.4-0.2c0.7-0.1,1.4-0.3,2-0.8c0.5-0.3,1-0.8,1.2-1.4
			c0.3-0.8,0.5-1.5,0.7-2.3c0.1-0.2,0-0.5-0.1-0.7c-0.3-0.7-0.7-1.3-1.2-1.9c-0.7-0.9-1.7-1.1-2.7-1c-1,0.1-1.8,0.3-2.7,0.4
			c-0.3,0-0.6,0-0.9,0.1c-0.6,0.1-1.3,0.3-2,0.3c-1.5,0.1-3,0.2-4.5,0.5c-0.8,0.1-1.6,0.2-2.5,0.3c-0.7,0.1-1.4,0.2-2,0.3
			c-0.4,0.1-0.7,0.1-1.2,0.1c-0.8,0-1.6,0.1-2.5,0.2c-1.1,0.2-2.2,0.3-3.2,0.7c-0.2,0.1-0.5,0.1-0.5,0.4c0,0.1-0.1,0.2-0.2,0.3
			c-0.4,0.3-0.8,0.7-1.2,1c-0.5,0.4-0.9,0.9-1,1.5c-0.1,0.5-0.2,1.2-0.5,1.6c-0.5,0.8-0.5,1.6-0.7,2.5c-0.3,0.9-0.3,1.9-0.5,2.7
			c-0.2,1-0.5,2-0.7,3c-0.2,1-0.6,1.9-0.9,2.8c-0.1,0.5-0.3,1-0.5,1.5c-0.4,0.9-0.7,1.7-1.2,2.6c-0.2,0.4-0.4,0.7-0.9,0.7
			C8,81.2,7.2,81.2,6.4,81c-0.1,0-0.3-0.1-0.5-0.1C5.2,81,4.6,80.8,4,80.6c-0.7-0.3-1.4-0.2-2-0.2c-0.1,0-0.2,0-0.3,0.1
			c-0.9,0.5-1.4,1.2-1.5,2.2c-0.1,0.8-0.1,1.4-0.1,2.2C0,85,0.1,85,0.1,85.1c0,0.1,0.1,0.3,0.1,0.4c0.2,1,0.7,1.8,1.7,2.2
			c0.4,0.1,0.8,0.3,1.2,0.5C4,88.7,5,89.1,6,89.3c0.5,0.1,0.6,0.2,0.5,0.8c-0.1,0.6-0.3,1.2-0.4,1.9c-0.3,1.3-1,2.5-1.1,3.8
			c-0.1,0.2-0.1,0.4-0.1,0.6c-0.1,0.4-0.1,0.8-0.2,1.2c-0.1,0.5-0.2,1-0.3,1.4c-0.1,0.7-0.1,1.4-0.1,2.1c-0.1,0.6,0,1.2,0.1,1.7
			c0.3,0.8,0.7,1.5,1.5,1.9c0.3,0.1,0.7,0.2,1.1,0.3c0.3,0.1,0.7,0,0.9-0.3c0.3-0.3,0.7-0.8,1-1.2c0.5-0.8,0.9-1.6,1.3-2.5
			c0.1-0.3,0.2-0.6,0.3-0.9c0.2-1,0.5-2.1,0.9-3c0.5-1.2,0.9-2.5,1.4-3.8c0.3-0.9,0.7-1.8,1.1-2.7c0.1-0.3,0.3-0.5,0.6-0.5
			c0.5-0.1,1-0.4,1.6-0.3c0,0,0.1-0.1,0.1-0.1c0.9-0.3,1.7-0.5,2.6-0.7c0.7-0.2,1.5-0.3,2.2-0.5c0.7-0.1,1.4-0.3,2.1-0.5
			c0.2-0.1,0.3-0.2,0.5-0.3c0.7-0.3,1.1-1,1.6-1.5c0.7-0.9,1-2,1.2-3.1c0.1-0.3,0.1-0.8,0.1-1.1c-0.3-0.1-0.5-0.2-0.5-0.6
			c-0.6-0.4-1.3-0.3-2-0.3c-0.7,0.1-1.4,0.2-2.1,0.1c-0.8,0-1.6-0.2-2.5-0.3c-0.5-0.1-1-0.2-1.5-0.3c-0.3-0.1-0.5-0.3-0.6-0.6
			c-0.1-0.5,0-1,0.1-1.5c0.1-0.1,0.1-0.3,0.2-0.5c0.1-0.3,0.2-0.8,0.3-1.1c0.3-1.4,0.7-2.7,1-4.1c0.3-1,0.5-2.1,1-3
			c0.3-0.7,0.6-1.3,1-2c0.1-0.1,0.2-0.3,0.3-0.3c0.3-0.2,0.7-0.3,1.1-0.2c0.2,0.1,0.3,0,0.5,0c0.2-0.1,0.5-0.1,0.7-0.1
			c0.2-0.1,0.3-0.1,0.5-0.1c0.6-0.1,1.3-0.3,1.9-0.3c1-0.1,1.8-0.1,2.8-0.1c1.2,0,2.2-0.1,3.3-0.3c0.5-0.1,1-0.2,1.5-0.2
			c0.8,0,1.6,0.1,2.5-0.1C36.3,65.8,36.7,65.7,37,65.7z M6.1,47.1C6.4,47,6.7,47,6.9,46.8c0.3-0.3,0.5-0.6,0.7-1
			c0.7-1.1,1.4-2.2,1.8-3.4c0.4-1,0.9-1.9,1.3-2.7c0.3-0.8,0.7-1.6,1-2.4c0.3-1,0.8-1.7,1.9-1.9c1.1-0.1,2.2-0.3,3.3-0.3
			c1.5,0,3-0.2,4.4-0.6c0.5-0.1,1-0.3,1.4-0.5c0.2-0.1,0.4-0.3,0.5-0.4c0.8-1.3,1.6-2.7,2.5-4c0.3-0.4,0.2-1-0.1-1.2
			c-0.3-0.3-0.8-0.5-1.4-0.5c-0.2,0-0.5,0.1-0.7-0.1c-0.6-0.4-1.3-0.4-1.9-0.5c-0.6-0.1-1.2-0.1-1.8-0.1c-0.6,0-1.3,0.1-1.9,0.2
			c-0.4,0.1-0.8,0-1.2-0.1c0.5-1.2,1-2.1,1.4-3.1c0.4-1,0.7-1.9,1.2-2.9c0.3-0.7,0.5-1.4,0.8-2.1c0.2-0.5,0.4-0.9,0.6-1.4
			c0.3-0.8,0.5-1.6,0.9-2.4c0.1-0.4,0.3-0.8,0.7-1c0.4-0.2,0.8-0.4,1.2-0.5c1.3-0.2,2.5-0.4,3.7-0.5c0.4-0.1,0.9-0.1,1.4-0.1
			c1.3-0.1,2.6-0.3,3.9-0.4c0.9-0.1,1.7-0.2,2.5-0.3c0.8-0.1,1.7-0.2,2.6-0.2c0.6,0,1.2-0.1,1.7-0.4c0.5-0.3,1-0.5,1.6-0.6
			c0.1,0,0.2-0.1,0.3-0.3c0.2-0.1,0.3-0.3,0.5-0.5c0.2-0.2,0.3-0.4,0.3-0.7c0.1-0.2,0.1-0.5,0.1-0.7c0.1-0.3,0.1-0.8,0-1.1
			c-0.3-0.5-0.6-1.2-1.1-1.6C40.8,6.3,40.4,6,39.9,6S39.1,6,38.6,6C37.4,5.8,36.3,5.7,35,6c-0.1,0-0.2,0-0.3,0c-0.8,0-1.6,0-2.5,0.1
			c-0.4,0-0.8,0.1-1.2,0.1c-1,0.1-2,0.1-3,0.1c-0.8,0.1-1.6,0.1-2.5,0.1c-1.6,0-3.3,0-5,0c-0.3,0-0.5,0-0.7,0
			c-0.5,0.1-1.2,0.2-1.7,0.2c-1.1,0-2.2-0.1-3.2-0.3c-1.2-0.2-2.3-0.1-3.5,0.2c-1,0.3-1.5,1.2-1.1,2.1c0.5,1.1,1.3,2.1,2.6,2.3
			c0.1,0,0.3,0.1,0.3,0.1c0.2,0.2,0.3,1.2,0.1,1.4c-0.2,0.2-0.2,0.5-0.3,0.8c-0.1,0.2-0.1,0.4-0.1,0.6c-0.5,1.4-0.7,2.8-1.2,4.1
			c-0.5,1.3-0.9,2.6-1.4,3.8c-0.3,0.6-0.5,1.3-0.8,1.9c-0.3,0.8-0.6,1.6-1,2.4c-0.3,0.5-0.6,1.2-0.7,1.8c0,0-0.1,0.1-0.1,0.1
			c-0.3,0.8-0.7,1.6-1,2.5c-0.2,0.5-0.4,1-0.6,1.5C5.7,33,5.3,33.9,5,34.8c-0.1,0.2-0.2,0.4-0.3,0.6C4.4,36.3,4.2,37,4,37.8
			c-0.1,0.3-0.2,0.5-0.3,0.8c-0.1,0.8-0.3,1.5-0.4,2.3c0,0.3,0,0.5-0.1,0.8c-0.2,1-0.2,1.9-0.3,2.9c-0.1,0.7,0.2,1.2,0.6,1.7
			C4.3,47.1,5.1,47.5,6.1,47.1z M74.4,43.3c0.7,0.9,1.6,1.6,2.5,2.4c0.7,0.5,1.6,0.8,2.4,0.8s1.7-0.3,2.5-0.4c0.1,0,0.3-0.1,0.4-0.2
			c0.7-0.6,1.5-1.2,2.2-1.9c0.9-0.7,1.7-1.4,2.6-2.1c0.3-0.3,0.6-0.5,1-0.8c0.1,0.3,0.1,0.5,0.1,0.8c0.1,0.5,0.2,1.1,0.3,1.6
			c0.1,0.4,0.3,0.8,0.4,1.2c0.3,0.8,0.6,1.6,1,2.3c0.3,0.6,0.8,1,1.6,1.2c0.4,0.1,0.7,0.2,1.1,0.4c0.2,0.1,0.3,0.4,0.7,0.3
			c0.2-0.1,0.6-0.1,0.7-0.3c0.5-0.7,1-1.4,0.8-2.3c0-0.1,0-0.3,0-0.4c0-0.9,0.3-1.9-0.1-2.8c-0.1-0.5-0.2-1.1-0.3-1.6
			c-0.3-1-0.7-1.9-1.1-2.8c-0.3-0.8-0.5-1.7-0.5-2.6c-0.1-0.9-0.1-1.9-0.1-2.7c-0.1-0.6-0.1-1.3,0.1-2c0.3-1.9,0.7-3.8,1-5.8
			c0-0.3,0-0.5,0.1-0.8c0.4-0.6,0.4-1.4,0.6-2.1c0.2-0.5,0.2-1.1,0.3-1.7c0.2-1.4,0.5-2.7,0.7-4.1c0.1-1,0.3-2.1,0.3-3.1
			c0.1-1.6,0.2-3.1,0.5-4.6c0.1-0.7,0.2-1.3,0.3-1.9c0.1-0.3,0.1-0.7,0.2-1c0.2-1,0.6-2.1,0.3-3.2c-0.1-0.3-0.3-0.6-0.5-0.8
			l-1.1-0.3c-1-0.1-2-0.2-2.7,0.8c-0.8,1-1.4,2.1-1.5,3.4c0,0.3-0.1,0.5-0.1,0.8c-0.1,0.9-0.4,1.8-0.5,2.7c-0.1,0.5-0.1,1-0.2,1.6
			c-0.1,0.3-0.2,0.7-0.3,1c-0.3,1.1-0.4,2.3-0.7,3.4c-0.2,1-0.5,1.9-0.7,2.9c-0.1,0.6-0.2,1.3-0.3,2c-0.2,1.2-0.5,2.5-0.7,3.8
			c-0.1,0.3-0.1,0.6-0.1,1c0,0.3,0,0.6,0,0.9c0,0.6-0.1,0.6-0.7,0.5c-0.1,0-0.1-0.1-0.2-0.1c-1.4-0.5-2.7-0.3-4.1-0.1
			c-0.7,0.1-1.5,0.5-2.2,0.8c-1,0.3-1.7,1-2.4,1.8c-1.1,1.3-2.1,2.6-2.9,4.2c-0.3,0.7-0.7,1.4-1,2.1c-0.5,1.7-0.8,3.4-0.6,5.2
			C73.5,41.4,73.7,42.4,74.4,43.3z M80.3,37c0.5-0.8,1.1-1.5,1.7-2.3c0.5-0.5,1-1,1.7-1.4c0.1-0.1,0.2-0.1,0.3-0.1
			c0.3,0.5,0.2,1,0.2,1.4c-0.1,0.7-0.1,1.4-0.5,2.1c-0.2,0.5-0.5,1-0.7,1.4c-0.3,0.5-0.7,0.8-1,1.2c-0.5,0.7-1.2,0.8-1.8,1
			c-0.2,0.1-0.3-0.1-0.4-0.3C79.4,38.9,79.7,37.9,80.3,37z M96.2,32.4c-0.3,0.6-0.5,1.3-0.8,1.9c-0.1,0.1-0.1,0.2-0.1,0.3
			c-0.1,0.8-0.1,1.6-0.1,2.5c0,0.1,0,0.3,0.1,0.5c0.7,1.3,1.8,2.1,3.2,2.5c0.1,0,0.1,0,0.2,0c0.2,0,0.5,0,0.7,0
			c0.6,0,1.3,0.1,1.8-0.1c1.1-0.3,2.2-0.6,3.1-1.2c0.3-0.2,0.7-0.5,1-0.7c0.3-0.1,0.5-0.3,0.8-0.4c0.8-0.5,1.6-1,2.2-1.5
			c0.5,0.6,1,1.3,1.4,1.9c0.5,0.6,1,1.3,1.4,1.9c0.3,0.4,0.5,0.9,0.8,1.3c0.3,0.4,0.6,0.9,1.1,1.1c0.1,0,0.1,0.1,0.2,0.2
			c0.3,0.3,0.5,0.6,0.7,0.8c1,0.5,1.8,1.4,2.9,1.6c0.1,0,0.1,0,0.1,0.1c0.6,0.4,1,0.4,1.6-0.1c0.1-0.1,0.3-0.2,0.5-0.2
			c1.3-0.2,1.6-1.7,1-2.7c-0.2-0.3-0.5-0.6-1-0.8c-0.1,0-0.3-0.1-0.5-0.2c-0.3-0.2-0.7-0.5-1.1-0.8c-0.6-0.5-1.3-1.1-1.8-1.8
			c-0.7-1-1.3-2.1-1.7-3.2c-0.1-0.3-0.1-0.5-0.1-0.8c0-0.1,0-0.2,0-0.3c-0.3-0.8-0.3-1.7-0.3-2.5c0-1.4,0.1-2.7,0.1-4.1
			c0.1-1,0.2-2,0.3-3c0.2-1.1,0.4-2.1,0.6-3.2c0.1-0.6,0.1-1.2,0.3-1.9c0.1-0.6,0.1-1.2,0.2-1.9s0.1-1.3,0.3-2
			c0.1-0.5,0.3-1,0.4-1.6c0.2-0.8,0.4-1.4,0.6-2.2c0.3-1.2,0.6-2.3,0.9-3.4c0.1-0.3,0.2-0.5,0.2-0.8c0-1.4,0.5-2.8,0.9-4.2
			c0.3-1.2,0.8-2.4,0.7-3.6l-7.6,2.5c-0.3,0.5-0.4,1.1-0.5,1.7c-0.1,0.5-0.1,1.2-0.2,1.7c-0.4,1.6-1,3.3-1.2,5
			c-0.1,1-0.5,2.1-0.3,3.2c0,0.1,0,0.1,0,0.2c-0.1,1.4-0.3,2.9-0.6,4.3c-0.2,0.8-0.3,1.7-0.4,2.6c-0.1,1-0.3,2-0.5,3
			c-0.1,0.3-0.1,0.8-0.1,1.1c-0.1,0.5-0.1,1-0.1,1.4c-0.1,0-0.2,0-0.3,0c-0.8-0.3-1.6-0.1-2.5-0.1c-0.7,0-1.6,0.2-2.4,0.3
			c-0.5,0.1-1.1,0.1-1.4,0.6c0,0-0.1,0.1-0.1,0.1c-0.8,0.1-1.4,0.7-2,1.2c-0.9,0.7-1.5,1.6-2.1,2.5C96.6,31.7,96.4,32.1,96.2,32.4z
			 M100.9,34.8c0.5-0.5,1.2-1,1.8-1.4c0.3-0.1,0.6-0.1,1-0.2c0.3-0.1,0.4,0.2,0.3,0.4c-0.3,0.5-0.4,1-0.9,1.4
			c-0.4,0.3-0.8,0.6-1.2,0.9c-0.5,0.3-1,0.3-1.6,0.1C100.5,35.5,100.6,35.1,100.9,34.8z M40.8,18.3c-0.3,0.3-0.7,0.8-1,1.1
			c-0.5,0.5-1,0.9-1.4,1.5c-0.3,0.7-0.8,1.4-1.4,2c-0.8,1-1.4,2.1-2,3.2c-0.7,1.2-1.2,2.5-1.9,3.7c-0.8,1.4-1.4,3-2,4.5
			c-0.3,0.7-0.5,1.4-0.7,2.1c-0.2,0.5-0.4,1.1-0.6,1.6c-0.3,0.5-0.5,1.2-0.7,1.8c-0.3,0.7-0.2,0.8,0.4,1.3c0.1,0.1,0.1,0.1,0.1,0.2
			c0.2,0.3,0.5,0.4,0.8,0.4c0.5,0,0.9-0.1,1.4-0.1c0.2,0,0.5-0.1,0.7-0.1c1.1-0.3,2-1,2.7-1.9c0.5-0.8,1-1.6,1.4-2.4
			c0.4-0.8,0.7-1.6,1.1-2.5c0.1-0.2,0.3-0.4,0.5-0.7c0.1,0.2,0.2,0.3,0.2,0.5c0.3,0.5,0.6,1.2,0.9,1.8c0.7,1.2,1.4,2.4,2.2,3.6
			c0.7,0.9,1.3,1.9,1.9,2.7c0.6,1,1.2,2,2.1,2.7c0.2,0.1,0.4,0.3,0.5,0.5c0.4,0.7,1.1,1,1.8,1.1c0.3,0.1,0.7,0,1-0.2
			c0.7-0.5,1.2-1.2,1.7-1.8c0.1-0.1,0.1-0.2,0.1-0.3c0.2-0.8-0.2-1.5-0.6-2.1c-0.5-0.6-1-1.2-1.4-1.9c-0.5-0.8-1-1.6-1.4-2.5
			c-0.3-0.6-0.3-1.4-0.5-2.1c-0.4-0.8-0.7-1.6-1.1-2.3c-0.3-0.6-0.7-1.2-1-1.9c-0.1-0.3-0.2-0.5-0.3-0.7c-0.1-0.2-0.1-0.3-0.1-0.5
			c0.1-0.1,0.3-0.1,0.3-0.1c1.1-0.4,2.2-0.7,3.1-1.2c0.1-0.1,0.2-0.1,0.3-0.1c0.7-0.3,1.4-0.7,1.8-1.2c0.5-0.5,0.9-1.1,1.3-1.6
			c0.5-0.7,0.8-1.4,1-2.3c0.3-0.9,0.4-1.9,0.6-2.7c0.3-1.4,0.3-2.7-0.4-3.9c-0.1-0.2-0.2-0.5-0.3-0.8c-0.2-0.3-0.3-0.7-0.5-0.9
			c-0.5-0.4-1.1-0.7-1.6-1c-0.2-0.1-0.4-0.1-0.6-0.1c-0.5,0-1,0.1-1.5,0c-0.7-0.1-1.3,0.1-1.8,0.3c-1,0.4-1.8,1-2.8,1.4
			C42.2,16.8,41.5,17.5,40.8,18.3z M42.6,24.3c0.4-0.8,0.6-1.6,1.2-2.2c0.5-0.4,0.9-1,1.3-1.5c0.3-0.4,0.8-0.8,1.5-0.5
			c0.2,0.4,0.2,0.9,0.1,1.4c-0.1,0.4-0.4,0.7-0.6,1c-0.4,0.5-0.8,1-1.2,1.5c-0.4,0.5-0.9,0.9-1.4,1.2c-0.3,0.2-0.7,0.2-1,0.3
			C42.4,25.1,42.4,24.7,42.6,24.3z M125.1,89.4c0.1-0.6,0.5-1.3,0.2-2.1c-0.4-0.1-0.7-0.1-1.1,0c-0.2,0.1-0.4,0.1-0.5,0.2
			c-0.2,0.1-0.4,0.2-0.6,0.3c-0.5,0.3-1.1,0.8-1.6,1.2c-0.5,0.3-1.1,0.5-1.8,0.5c-0.7,0-1.4,0.1-2.1,0.1c-0.5,0-0.9-0.1-1.2-0.3
			c-0.6-0.5-0.9-1.1-1.2-1.7v-0.1c-0.1-0.5-0.1-1-0.1-1.6c0.1-0.9,0.5-1.4,1.3-1.4c0.5,0,1-0.1,1.4-0.1c0.5-0.1,1-0.1,1.5-0.1
			c0.5-0.1,1-0.3,1.4-0.3c0.5,0,1-0.3,1.4-0.4c0.1,0,0.1,0,0.1,0c0.7-0.1,1.4-0.4,1.9-0.8c0.5-0.3,1-0.5,1.3-1
			c0.3-0.3,0.7-0.5,1-0.9c0.3-0.4,0.8-0.7,0.9-1.3c0.3-0.2,0.3-0.6,0.4-1c0.2-0.8,0.3-1.4,0.1-2.2c-0.1-0.7-0.4-1.3-0.6-2
			c-0.1-0.5-0.6-1-0.6-1.6c-0.5-0.6-1-1.2-1.6-1.7c-0.2-0.2-0.4-0.4-0.6-0.6c-0.5-0.4-0.9-0.9-1.6-1c-0.6-0.1-1.2,0-1.7-0.1
			c-0.8-0.2-1.6,0-2.4,0.3c-0.8,0.3-1.6,0.8-2.5,1.3c-0.2,0.1-0.5,0.3-0.7,0.5c-0.2,0.2-0.4,0.5-0.6,0.8c-0.5,0.6-1,1.2-1.4,1.8
			c-0.5,0.7-0.8,1.4-1.2,2.2c-0.3,0.7-0.7,1.4-1.2,2.2c-0.3,0.6-0.7,1.2-1,1.9c-0.5,1.6-1.1,3.3-1.2,5.1c0,1.2-0.3,2.5-0.3,3.7
			c0.1,1.1,0.3,2.1,0.8,3c0.4,0.8,0.9,1.6,1.6,2.2c0.4,0.3,0.7,0.8,1.2,1c0.6,0.3,1.2,0.5,1.8,0.8c0.8,0.2,1.6,0.4,2.5,0.6
			c0.1,0,0.1,0,0.2,0c0.6,0,1.2,0,1.8-0.1c0.7-0.1,1.3,0.1,2-0.3c1.8-1.1,1.7-1.1,2.7-2.5c0-0.1,0.1-0.1,0.1-0.1
			c0.5-0.5,0.7-1.3,1-2.1C124.6,90.9,124.9,90.2,125.1,89.4z M117.6,78.3c0.4-0.8,0.7-1.6,1.4-2.3c0.2-0.2,0.4-0.5,0.6-0.7
			c0.1-0.1,0.3-0.1,0.4-0.1c0.1,0,0.2,0.2,0.3,0.3c-0.1,0.8-0.1,1.4-0.7,2.1c-0.5,0.5-1.2,0.8-1.8,1.1c-0.1,0-0.2-0.1-0.3-0.1
			C117.6,78.6,117.6,78.4,117.6,78.3z M51.7,74.2c0.3-0.8,0.4-1.6,0.4-2.4c-0.1-0.8-0.1-1.6-0.2-2.4c0.1-0.1,0.1-0.1,0.2,0.2
			c-0.1-1-0.2-2-0.3-3c-0.1-1.2-0.7-2.1-1.5-2.9c-0.5-0.4-1-0.5-1.5-0.4c-0.4,0-0.9,0.2-1.2,0.5c-0.3,0.3-0.6,0.5-0.8,0.9
			c-0.1,0.1-0.1,0.2-0.1,0.3c-0.2,0.4-0.3,0.8-0.5,1.1c-0.7,1.4-1.4,2.7-2,4.3c-0.4,1.2-1,2.3-1.6,3.4c-0.1,0.3-0.2,0.6-0.3,0.9
			c-0.3,0.7-0.5,1.4-0.7,2.2c-0.3,1.2-1.1,2.4-1.4,3.6c-0.2,0.8-0.5,1.6-0.8,2.5c-0.5,1.6-0.8,3.2-1.4,4.7c-0.4,1.1-0.7,2.3-0.9,3.4
			c-0.3,1.6-0.7,3.2-1.3,4.7c-0.3,0.8-0.5,1.6-0.4,2.5c0.1,0.8,0.3,1.5,0.3,2.3c0.1,0.8,0.3,1.4,0.8,2.1c0.7,0.8,1.7,1.1,2.7,1.2
			c0.1,0.1,0.3,0,0.4-0.1c0.4-0.5,0.9-1,1.3-1.5c0.7-0.9,1.1-1.9,1.5-3c0.4-0.9,0.7-1.8,1-2.7c0.3-1,0.9-2,0.9-3.1
			c0-0.1,0.1-0.2,0.1-0.3c0.3-1.2,0.5-2.4,0.8-3.6c0.1-0.4,0.1-0.9,0.3-1.3c0.1-0.3,0.2-0.5,0.3-0.8c0.3-0.9,0.7-1.8,1.1-2.7
			c0.3-0.5,0.5-1.2,0.7-1.7c0.3-0.7,0.5-1.4,0.8-2.1c0.3-0.7,0.7-1.3,0.9-2c0.3-1,0.9-1.8,1.4-2.6c0.1-0.2,0.2-0.3,0.3-0.5
			C51.2,75.3,51.4,74.7,51.7,74.2z M139,36.2c0.1,0.4,0.3,0.8,0.4,1.1c0.2,1.3,0.9,2.3,1.8,3.3c0.2,0.3,0.4,0.5,0.6,0.8
			c0.3,0.4,0.7,0.9,1.2,1.3c0.6,0.5,1.4,0.9,2.1,1.2c1.3,0.5,2.6,0.8,4,1c0.2,0.1,0.3,0.1,0.5-0.1c0.6-0.3,1.2-0.7,1.8-1
			c0.4-0.2,0.7-0.4,0.9-0.8c0.6-0.8,1.3-1.6,1.8-2.5c0.4-0.8,0.5-1.2-0.1-1.9c-0.1-0.2-0.3-0.2-0.5-0.1c-0.4,0.1-0.9,0.3-1.3,0.3
			c-1,0.2-2,0.4-3,0.6c-0.7,0.2-1.5-0.1-2.2-0.2c-0.1,0-0.3-0.1-0.4-0.3c-0.3-0.3-0.7-0.6-1-1c-0.2-0.2-0.3-0.4-0.5-0.6
			c-0.4-0.8-0.4-1.5-0.3-2.3c0.1-0.3,0.1-0.5,0.4-0.6c0.5-0.3,1.1-0.6,1.7-0.8c0.3-0.1,0.7-0.3,1-0.5c0.2-0.1,0.4-0.3,0.7-0.4
			c0.3-0.1,0.6-0.3,0.8-0.6c0.5-0.5,0.9-1.1,1.3-1.6c0.8-1.1,1.6-2.2,2.5-3.3c0.7-0.9,1.2-1.9,1.5-3c0.1-0.4,0.3-0.8,0.3-1.2
			c0.1-0.8,0-1.6,0-2.5c0-0.1-0.1-0.2-0.1-0.3c-0.1-0.3-0.3-0.5-0.3-0.9c0-0.3-0.1-0.5-0.3-0.7c-0.3-0.3-0.5-0.5-0.9-0.7
			c-0.4-0.2-0.8-0.4-1.4-0.3c-0.5,0-1-0.1-1.4-0.1c-0.3-0.1-0.6-0.1-1,0c-0.4,0.1-0.9,0.3-1.3,0.3c-1,0.1-1.7,0.6-2.4,1.2
			c-0.3,0.3-0.6,0.7-1,0.9c-1.2,0.7-2,1.7-2.9,2.9c-1.1,1.6-2,3.2-2.7,5c-0.4,1-1,1.9-1,3c-0.1,0.8-0.2,1.5-0.3,2.3
			c0,0.2,0,0.4,0.2,0.6C138.4,34.6,138.8,35.4,139,36.2z M147.4,25.1c0.4-0.3,0.7-0.7,1.2-0.9c0.2-0.1,0.4-0.2,0.5,0
			c0.1,0.1,0.1,0.3,0,0.5c-0.4,0.5-0.8,1.2-1.3,1.6c-0.8,0.6-1.7,1.2-2.6,1.7c0,0-0.1,0-0.2,0C145.7,26.9,146.4,25.9,147.4,25.1z
			 M53.4,38.2c0.5,1.3,1.1,2.6,1.8,3.8c0.5,0.8,1,1.4,1.7,1.9c0.9,0.5,1.7,1.2,2.7,1.8c0.2,0.1,0.4,0.3,0.7,0.5c1,0.4,2,0.5,3.1,0.7
			c0.1,0,0.3,0.1,0.4,0c1.1-0.3,2.1-0.6,3.1-1.1c0.6-0.3,1.2-0.9,1.7-1.3c0.5-0.3,0.7-0.7,0.9-1.2c0.2-0.4,0.4-0.9,0.5-1.3
			c0.2-0.5-0.1-1.1-0.7-0.9c-0.8,0.2-1.7,0.3-2.6,0.6c-1,0.3-2.1,0.4-3.1,0.3c-0.2,0-0.3,0-0.5,0.1c-1,0.1-1.8-0.1-2.5-0.8
			c-0.2-0.2-0.4-0.4-0.5-0.6c-0.3-0.5-0.7-0.9-0.8-1.5c-0.1-0.5,0.2-0.9,0.7-0.9c0.3,0,0.5,0.1,0.8,0.1c0.4,0.1,0.9,0.1,1.3,0.1
			c0.8-0.1,1.6-0.2,2.5-0.3c0.5-0.1,1.1-0.3,1.6-0.5c0.8-0.4,1.6-1,2.4-1.6c1.1-1,2-2.1,2.5-3.4c0.3-0.8,0.3-1.6,0.5-2.4
			c0.1-0.5,0-0.9-0.1-1.4c-0.1-0.1-0.1-0.3-0.2-0.5c-0.3-1.3-0.9-2.5-2.1-3.2c-0.1-0.1-0.3-0.2-0.4-0.3c-0.5-0.5-1.1-0.8-1.7-1.1
			c-0.3-0.1-0.7-0.3-1.1-0.5c-0.1-0.1-0.2-0.1-0.3-0.1c-0.6-0.1-1.2-0.1-1.8,0.1c-0.7,0.3-1.5,0.8-2.2,1.1c-0.5,0.3-1.1,0.7-1.5,1.2
			c-0.1,0.1-0.2,0.1-0.3,0.2c-1,0.8-2.1,1.6-2.9,2.6c-0.7,0.8-1.3,1.7-1.9,2.5c-0.3,0.4-0.7,0.8-0.8,1.3c-0.1,0.3-0.2,0.7-0.4,1
			c-0.3,0.5-0.4,1.2-0.5,1.8c-0.1,0.8-0.1,1.6,0,2.3C53.2,37.5,53.2,37.8,53.4,38.2z M61.8,30.4c0.4-0.5,0.8-1,1.3-1.4
			c0.4-0.3,0.9-0.5,1.4-0.6c0.5-0.1,1.2,0.3,1.5,1.2c-0.4,0.6-0.8,1.4-1.3,2.1c-0.1,0.2-0.3,0.3-0.5,0.5c-1,0.5-2.1,1-3.3,0.7
			c-0.1,0-0.3-0.1-0.4-0.1C60.7,31.7,61.2,31,61.8,30.4z M173.1,84.3c-0.1-0.3-0.3-0.7-0.5-1c-0.7-0.8-1.3-1.4-2.1-2
			c-0.8-0.6-1.6-1.4-2.3-2.1c-0.4-0.3-0.7-0.8-1.1-1.3c-0.3-0.4-0.2-0.9,0.2-1.1c0.4-0.2,0.9-0.3,1.3-0.3c0.6-0.1,1.2,0,1.8-0.1
			c0.5-0.1,1-0.3,1.2-0.8c0.2-0.7,0.3-1.4,0.3-2.1c0-0.6-0.5-1.2-1-1.5c-0.7-0.4-1.4-0.3-2.1-0.3c-0.5,0-1,0.3-1.4,0.3
			c-0.7-0.1-1.4,0.5-2.2,0.2c-0.1,0-0.2,0.1-0.3,0.1c-0.2,0.1-0.5,0.1-0.7,0.1c-0.3,0.1-0.7,0.1-1,0.2c-0.3,0.1-0.6,0.2-0.9,0.4
			c-0.7,0.5-1.4,1-2.1,1.5c-0.4,0.3-0.7,0.6-0.8,1c-0.5,1.5,0,3.2,1.4,4.3c0.3,0.1,0.5,0.3,0.7,0.5c0.4,0.4,0.8,0.9,1.2,1.3
			c0.9,0.8,1.8,1.6,2.6,2.5c0.7,0.8,1.4,1.8,2,2.7c0.1,0.2,0.2,0.5,0.2,0.7c0,0.5-0.1,1.1-0.4,1.6c-0.2,0.3-0.3,0.3-0.7,0.3
			c-1-0.2-1.9-0.7-2.9-0.3c-0.1,0-0.1,0-0.2,0c-1.3-0.2-2.3,0.8-2.7,1.9c-0.3,1.1-0.5,2.2-0.4,3c0.1,1.5,0.1,1.5,0.6,2.2
			c0.1,0.2,0.3,0.3,0.5,0.5c1.1,1,2.3,1.7,4,1.6c1.1-0.1,2.2-0.1,3.1-0.7c0.1-0.1,0.3-0.2,0.5-0.3c0.7-0.3,1.5-0.8,2-1.4
			c0.3-0.4,0.8-0.8,1-1.4c0.1-0.1,0.1-0.2,0.2-0.3c0.5-0.7,0.8-1.4,1-2.3c0.1-0.3,0.1-0.8,0.3-1.1c0.2-0.3,0.3-0.8,0.3-1.2
			c0-0.3,0.1-0.5,0.1-0.8c0-0.5,0.1-1.1,0-1.6C173.7,86.1,173.5,85.2,173.1,84.3z M179.4,30.6c0.1-0.4-0.1-0.8-0.3-1.1
			c-0.3-0.5-0.6-1.2-0.7-1.8c-0.1-0.4-0.2-0.8-0.5-1c-0.4-0.3-0.4-0.8-0.7-1.2c-0.1-0.1-0.1-0.3-0.2-0.4c-0.3-0.3-0.3-0.6-0.3-1
			c0-0.1,0.1-0.3,0-0.3c-0.3-0.4,0-0.9,0.1-1.3c0.1-0.2,0.2-0.4,0.3-0.5c0.7-0.5,1.2-1.1,1.7-1.7c0.1-0.3,0.3-0.5,0.5-0.8
			c0.2-0.4,0.3-0.9,0.5-1.3c0.2-0.4,0.2-0.8,0.2-1.3c0-0.8-0.3-1.4-0.6-1.9c-0.3-0.5-0.8-1-1.4-1.3c-0.8-0.5-1.6-0.6-2.5,0
			c-1.1,0.8-2.2,1.5-3.3,2.3c-0.8,0.6-1.5,1.5-1.5,2.6c0,1.2,0.2,2.4,0.7,3.6c1,2.1,2,4,3.2,5.8c0.7,1.1,1.3,2.2,1.5,3.5
			c0.3,1.8,0.4,3.6-0.2,5.3c-0.5,1.5-1,3.2-1.7,4.6c-0.8,1.5-2,2.5-3.4,3.4c-0.3-0.1-0.5-0.2-0.8-0.5c-0.2-0.1-0.4-0.4-0.6-0.5
			c-0.3-0.2-0.1-0.6-0.3-0.8c-0.3-0.4-0.3-0.8-0.3-1.3c0-0.1-0.1-0.3-0.2-0.4c-0.1,0-0.3,0.1-0.4,0.1c-0.2,0.2-0.4,0.5-0.5,0.8
			c-0.4,0.7-0.8,1.4-1.3,2.1c-0.9,1.2-1.2,2.5-0.7,4c0.3,0.8,0.7,1.4,1.5,1.8c0.6,0.3,1.2,0.5,1.8,0.5c1,0,2-0.3,2.9-0.8
			c0.3-0.2,0.5-0.5,0.7-0.7c0.6-0.4,1.2-0.9,1.7-1.5c0.3-0.3,0.6-0.6,0.8-1c0.6-1,1.2-2,1.8-3c0.2-0.2,0.3-0.5,0.3-0.8
			c0.1-0.4,0.3-0.8,0.4-1.2c0.3-0.7,0.7-1.3,0.9-2c0.2-1,1-1.9,0.8-3c0-0.1,0-0.2,0.1-0.3c0.4-0.8,0.4-1.6,0.4-2.4
			c0-0.3,0-0.6,0-0.9c0-0.7-0.1-1.4-0.4-2.1C179.4,30.9,179.4,30.8,179.4,30.6z M123,29c0.7,0.8,1.8,1,2.8,1.3
			c0.6,0.2,1.2,0.3,1.8,0.5c0,0.1,0,0.2,0,0.3c-0.1,0.7-0.3,1.4-0.4,2.1c-0.1,0.8-0.1,1.4-0.3,2.2c0,0.3-0.1,0.6-0.2,1
			c-0.1,0.8-0.2,1.7-0.3,2.5c-0.1,0.5-0.2,1-0.2,1.6c-0.1,0.6,0,1.3,0.4,1.9c0.3,0.4,0.6,0.9,1.1,1.2c0.6,0.3,1.1,0.9,1.6,1.2
			c0.7,0.5,1.6,0.2,2-0.5c0.2-0.4,0.3-0.8,0.3-1.2c-0.1-0.3,0.1-0.7,0.1-1c-0.1-0.8,0-1.5,0.1-2.2c0.2-1,0.4-2,0.7-3
			c0.3-1.3,0.7-2.5,1.1-3.8c0.3-0.8,0.5-1.5,0.7-2.3c0.1-0.5,0.2-1,0.1-1.4c-0.1-0.4,0-0.8,0.1-1.2c0.1-0.2,0.1-0.5,0.2-0.7
			c0.1-0.6,0.3-1.2,0.5-1.8c0.1-0.3,0.2-0.8,0.2-1.2c0-0.4,0.1-0.8-0.5-1c-0.1,0-0.1-0.1-0.1-0.1c-0.3-0.5-0.8-0.8-1.3-1
			c-0.1-0.1-0.4-0.3-0.4-0.2c-0.3,0.3-0.6,0.1-1,0.2c-0.3,0.2-0.6,0.2-0.9-0.1c-1,0.8-2,1.5-3.1,2.1c-0.5,0.2-1,0.5-1.5,0.5
			c-1.3,0.1-2.5,0.2-3.8,0.3c-0.3,0.1-0.7,0.1-1,0.3c-0.3,0.3-0.7,0.8-0.5,1.3C121.7,27.7,122.3,28.4,123,29z M164,11.5
			c0.1,0,0.3,0,0.4,0.1c0,0.1-0.1,0.3-0.1,0.3c-0.2,0.6-0.5,1.2-0.7,1.8c-0.3,0.7-0.6,1.3-1.2,1.8c-0.1,0.1-0.1,0.3-0.3,0.5
			c-0.1,0.2-0.1,0.4,0.1,0.5c0.3,0.3,0.6,0.6,1.2,0.6c0.5,0,1-0.1,1.4-0.4c0.7-0.4,1.3-0.9,2-1.4c0.1-0.1,0.2-0.1,0.3-0.3
			c0.3-0.5,0.8-1.1,1-1.8c0.1-0.4,0.3-0.8,0.5-1.1c0.7-1,1.1-2.1,1.4-3.2c0.1-0.4,0.1-1,0.1-1.4c-0.1-0.6-0.2-1.3-0.3-1.9
			c-0.1-0.1-0.1-0.2-0.1-0.3c-0.5-0.3-1-0.8-1.6-1c-0.9-0.4-1.8-0.1-2.5,0.3c-1.5,0.9-2.5,2.2-3.4,3.6c-0.3,0.5-0.3,1-0.1,1.5
			C162.3,10.6,162.9,11.4,164,11.5z M131.2,19.6c0.5,0.2,1,0.3,1.6,0.1c0.5-0.1,1.2-0.3,1.5-0.9c0.3-0.5,0.4-1.1,0.3-1.7
			c-0.1-0.1-0.1-0.2-0.1-0.3c0.1-0.7-0.3-1.2-0.7-1.6c-0.3-0.4-0.8-0.6-1.2-0.9c-0.7-0.6-2.2-0.5-2.9,0.5c-0.1,0.3-0.3,0.5-0.4,0.7
			c-0.3,0.4-0.4,0.9-0.4,1.4c0.1,0.3,0.1,0.6,0.1,0.8C129.4,18.7,130.2,19.2,131.2,19.6z"/>
	</g>
</g>
<rect id="_x3C_Slice_x3E_" x="-45.2" y="-58.7" class="st4" width="322" height="146"/>
</svg>
